<!-- Product Hunt Gallery Image 7: Dashboard -->
<svg width="1200" height="630" viewBox="0 0 1200 630" xmlns="http://www.w3.org/2000/svg">
  <defs>
    <linearGradient id="matrixGradient7" x1="0%" y1="0%" x2="100%" y2="100%">
      <stop offset="0%" style="stop-color:#00FF41;stop-opacity:1" />
      <stop offset="100%" style="stop-color:#00cc33;stop-opacity:1" />
    </linearGradient>
    <linearGradient id="cyberGradient" x1="0%" y1="0%" x2="100%" y2="100%">
      <stop offset="0%" style="stop-color:#00D4FF;stop-opacity:0.8" />
      <stop offset="100%" style="stop-color:#00FF41;stop-opacity:0.8" />
    </linearGradient>
  </defs>
  
  <rect width="1200" height="630" fill="#0D1117"/>
  
  <!-- Hex grid pattern -->
  <g stroke="#00FF41" stroke-width="0.5" opacity="0.05" fill="none">
    <polygon points="100,100 125,85 150,100 150,130 125,145 100,130"/>
    <polygon points="175,100 200,85 225,100 225,130 200,145 175,130"/>
    <polygon points="100,160 125,145 150,160 150,190 125,205 100,190"/>
  </g>
  
  <!-- Header -->
  <text x="60" y="60" font-family="monospace" font-size="18" fill="#00FF41">PHANTOM // DASHBOARD</text>
  <text x="1140" y="60" font-family="JetBrains Mono, monospace" font-size="14" fill="#00D4FF" text-anchor="end">v1.0.0 ● ONLINE</text>
  
  <!-- Metrics boxes -->
  <g transform="translate(60, 100)">
    <!-- Box 1 -->
    <rect width="260" height="120" rx="4" fill="#161B22" stroke="#30363D" stroke-width="1"/>
    <text x="20" y="35" font-family="Inter, sans-serif" font-size="14" fill="#8B949E">CONTEXT INDEXED</text>
    <text x="20" y="80" font-family="JetBrains Mono, monospace" font-size="42" fill="#00FF41">847</text>
    <text x="20" y="105" font-family="Inter, sans-serif" font-size="12" fill="#7EE787">↑ 23 files today</text>
    
    <!-- Box 2 -->
    <g transform="translate(280, 0)">
      <rect width="260" height="120" rx="4" fill="#161B22" stroke="#30363D" stroke-width="1"/>
      <text x="20" y="35" font-family="Inter, sans-serif" font-size="14" fill="#8B949E">AGENTS ACTIVE</text>
      <text x="20" y="80" font-family="JetBrains Mono, monospace" font-size="42" fill="#00D4FF">7/7</text>
      <text x="20" y="105" font-family="Inter, sans-serif" font-size="12" fill="#7EE787">All operational</text>
    </g>
    
    <!-- Box 3 -->
    <g transform="translate(560, 0)">
      <rect width="260" height="120" rx="4" fill="#161B22" stroke="#30363D" stroke-width="1"/>
      <text x="20" y="35" font-family="Inter, sans-serif" font-size="14" fill="#8B949E">MODULES LOADED</text>
      <text x="20" y="80" font-family="JetBrains Mono, monospace" font-size="42" fill="#FFA657">12</text>
      <text x="20" y="105" font-family="Inter, sans-serif" font-size="12" fill="#7EE787">3 updated today</text>
    </g>
    
    <!-- Box 4 -->
    <g transform="translate(840, 0)">
      <rect width="240" height="120" rx="4" fill="#161B22" stroke="#30363D" stroke-width="1"/>
      <text x="20" y="35" font-family="Inter, sans-serif" font-size="14" fill="#8B949E">PRDS GENERATED</text>
      <text x="20" y="80" font-family="JetBrains Mono, monospace" font-size="42" fill="#F778BA">34</text>
      <text x="20" y="105" font-family="Inter, sans-serif" font-size="12" fill="#7EE787">This week</text>
    </g>
  </g>
  
  <!-- Activity feed -->
  <g transform="translate(60, 250)">
    <rect width="520" height="320" rx="4" fill="#161B22" stroke="#30363D" stroke-width="1"/>
    <text x="20" y="35" font-family="Inter, sans-serif" font-size="16" fill="#FFFFFF">RECENT ACTIVITY</text>
    
    <g font-family="JetBrains Mono, monospace" font-size="13">
      <text x="20" y="75" fill="#00D4FF">09:42</text>
      <text x="80" y="75" fill="#E1E1E1">Agent Swarm analyzed OAuth flow</text>
      
      <text x="20" y="105" fill="#00D4FF">09:38</text>
      <text x="80" y="105" fill="#E1E1E1">Generated PRD: "Payment Gateway"</text>
      
      <text x="20" y="135" fill="#00D4FF">09:15</text>
      <text x="80" y="135" fill="#E1E1E1">Context engine indexed 23 files</text>
      
      <text x="20" y="165" fill="#00D4FF">08:52</text>
      <text x="80" y="165" fill="#E1E1E1">MCP bridge: Cursor connected</text>
      
      <text x="20" y="195" fill="#00D4FF">08:30</text>
      <text x="80" y="195" fill="#E1E1E1">Sprint plan updated: Week 3</text>
      
      <text x="20" y="225" fill="#00D4FF">08:15</text>
      <text x="80" y="225" fill="#E1E1E1">Module installed: story-writer</text>
      
      <text x="20" y="255" fill="#00D4FF">07:45</text>
      <text x="80" y="255" fill="#E1E1E1">Analytics: Competitor report ready</text>
    </g>
  </g>
  
  <!-- Agent status -->
  <g transform="translate(600, 250)">
    <rect width="520" height="320" rx="4" fill="#161B22" stroke="#30363D" stroke-width="1"/>
    <text x="20" y="35" font-family="Inter, sans-serif" font-size="16" fill="#FFFFFF">AGENT SWARM STATUS</text>
    
    <g font-family="JetBrains Mono, monospace" font-size="13">
      <text x="20" y="75" fill="#00FF41">●</text>
      <text x="40" y="75" fill="#E1E1E1">Tech Lead</text>
      <text x="200" y="75" fill="#7EE787">Reviewing architecture...</text>
      
      <text x="20" y="110" fill="#00FF41">●</text>
      <text x="40" y="110" fill="#E1E1E1">Product Manager</text>
      <text x="200" y="110" fill="#7EE787">Updating roadmap...</text>
      
      <text x="20" y="145" fill="#00FF41">●</text>
      <text x="40" y="145" fill="#E1E1E1">UX Designer</text>
      <text x="200" y="145" fill="#7EE787">Analyzing user flows...</text>
      
      <text x="20" y="180" fill="#00FF41">●</text>
      <text x="40" y="180" fill="#E1E1E1">Security</text>
      <text x="200" y="180" fill="#7EE787">Auditing auth module...</text>
      
      <text x="20" y="215" fill="#00FF41">●</text>
      <text x="40" y="215" fill="#E1E1E1">Data Scientist</text>
      <text x="200" y="215" fill="#7EE787">Processing metrics...</text>
      
      <text x="20" y="250" fill="#00FF41">●</text>
      <text x="40" y="250" fill="#E1E1E1">QA Engineer</text>
      <text x="200" y="250" fill="#7EE787">Running test suite...</text>
      
      <text x="20" y="285" fill="#00FF41">●</text>
      <text x="40" y="285" fill="#E1E1E1">Engineer</text>
      <text x="200" y="285" fill="#7EE787">Writing implementation...</text>
    </g>
  </g>
</svg>
