<!-- Product Hunt Gallery Image 6: MCP Integration -->
<svg width="1200" height="630" viewBox="0 0 1200 630" xmlns="http://www.w3.org/2000/svg">
  <defs>
    <linearGradient id="matrixGradient6" x1="0%" y1="0%" x2="100%" y2="100%">
      <stop offset="0%" style="stop-color:#00FF41;stop-opacity:1" />
      <stop offset="100%" style="stop-color:#00D4FF;stop-opacity:1" />
    </linearGradient>
  </defs>
  
  <rect width="1200" height="630" fill="#0D1117"/>
  
  <!-- Background grid -->
  <g stroke="#00FF41" stroke-width="0.5" opacity="0.05">
    <line x1="0" y1="150" x2="1200" y2="150"/>
    <line x1="0" y1="300" x2="1200" y2="300"/>
    <line x1="0" y1="450" x2="1200" y2="450"/>
    <line x1="300" y1="0" x2="300" y2="630"/>
    <line x1="600" y1="0" x2="600" y2="630"/>
    <line x1="900" y1="0" x2="900" y2="630"/>
  </g>
  
  <!-- Title -->
  <text x="600" y="70" font-family="Inter, system-ui, sans-serif" font-size="40" font-weight="bold" fill="#FFFFFF" text-anchor="middle">Invisible Power</text>
  <text x="600" y="105" font-family="Inter, system-ui, sans-serif" font-size="18" fill="#9CA3AF" text-anchor="middle">Works inside your IDE. Zero context switching.</text>
  
  <!-- Left: VS Code Window -->
  <rect x="50" y="150" width="350" height="400" rx="8" fill="#1E1E1E" stroke="#333" stroke-width="2"/>
  <rect x="50" y="150" width="350" height="35" rx="8" fill="#2D2D2D"/>
  <text x="225" y="173" font-family="sans-serif" font-size="12" fill="#CCCCCC" text-anchor="middle">UserAuth.tsx - VS Code</text>
  
  <!-- Code in VS Code -->
  <g font-family="JetBrains Mono, monospace" font-size="11">
    <text x="70" y="210" fill="#C586C0">import</text>
    <text x="130" y="210" fill="#9CDCFE"> React</text>
    <text x="185" y="210" fill="#C586C0"> from</text>
    <text x="225" y="210" fill="#CE9178">'react'</text>
    <text x="70" y="230" fill="#C586C0">import</text>
    <text x="130" y="230" fill="#9CDCFE"> { useAuth } </text>
    <text x="230" y="230" fill="#C586C0">from</text>
    <text x="270" y="230" fill="#CE9178">'./auth'</text>
    <text x="70" y="270" fill="#DCDCAA">export</text>
    <text x="120" y="270" fill="#DCDCAA">function</text>
    <text x="185" y="270" fill="#DCDCAA">UserAuth</text>
    <text x="255" y="270" fill="#D4D4D4">() {</text>
    <text x="90" y="290" fill="#C586C0">const</text>
    <text x="140" y="290" fill="#9CDCFE"> { user, login } </text>
    <text x="260" y="290" fill="#D4D4D4">=</text>
    <text x="285" y="290" fill="#DCDCAA">useAuth</text>
    <text x="345" y="290" fill="#D4D4D4">()</text>
  </g>
  
  <!-- Center: Connection arrows -->
  <g stroke="#00FF41" stroke-width="2" fill="none" opacity="0.6">
    <path d="M400 350 L500 350">
      <animate attributeName="stroke-dasharray" values="0,10;10,0" dur="1s" repeatCount="indefinite"/>
    </path>
    <path d="M700 350 L800 350">
      <animate attributeName="stroke-dasharray" values="0,10;10,0" dur="1s" repeatCount="indefinite"/>
    </path>
  </g>
  <polygon points="500,345 515,350 500,355" fill="#00FF41" opacity="0.6"/>
  <polygon points="800,345 815,350 800,355" fill="#00FF41" opacity="0.6"/>
  
  <!-- PHANTOM in center -->
  <circle cx="600" cy="350" r="70" fill="#0D1117" stroke="#00FF41" stroke-width="3"/>
  <text x="600" y="330" font-family="monospace" font-size="14" fill="#00FF41" text-anchor="middle">PHANTOM</text>
  <text x="600" y="355" font-family="monospace" font-size="20" fill="#00FF41" text-anchor="middle">MCP</text>
  <text x="600" y="375" font-family="monospace" font-size="10" fill="#9CA3AF" text-anchor="middle">BRIDGE</text>
  
  <!-- Right: Cursor/Claude Window -->
  <rect x="800" y="150" width="350" height="400" rx="8" fill="#1E1E1E" stroke="#333" stroke-width="2"/>
  <rect x="800" y="150" width="350" height="35" rx="8" fill="#2D2D2D"/>
  <text x="975" y="173" font-family="sans-serif" font-size="12" fill="#CCCCCC" text-anchor="middle">Cursor Composer</text>
  
  <!-- Claude output -->
  <g font-family="JetBrains Mono, monospace" font-size="11">
    <text x="820" y="210" fill="#E1E1E1">Looking at UserAuth.tsx...</text>
    <text x="820" y="235" fill="#E1E1E1">I can see you're implementing</text>
    <text x="820" y="255" fill="#E1E1E1">authentication. Based on your</text>
    <text x="820" y="275" fill="#E1E1E1">PRD and context, I recommend:</text>
    <text x="820" y="305" fill="#7EE787">• Add OAuth provider support</text>
    <text x="820" y="325" fill="#7EE787">• Implement refresh tokens</text>
    <text x="820" y="345" fill="#7EE787">• Add 2FA for admin users</text>
    <text x="820" y="380" fill="#00D4FF">Context from PHANTOM:</text>
    <text x="820" y="400" fill="#9CA3AF">Sprint goal: Ship auth by Friday</text>
    <text x="820" y="420" fill="#9CA3AF">Related: UserProfile.tsx, auth.ts</text>
  </g>
  
  <!-- Bottom tag -->
  <text x="600" y="580" font-family="Inter, system-ui, sans-serif" font-size="16" fill="#00FF41" text-anchor="middle">Model Context Protocol • Real-time Context • Zero Configuration</text>
</svg>
